<?xml version="1.0" encoding="utf-8"?>
<!-- Generator: Adobe Illustrator 19.2.1, SVG Export Plug-In . SVG Version: 6.00 Build 0)  -->
<svg version="1.1" xmlns="http://www.w3.org/2000/svg" xmlns:xlink="http://www.w3.org/1999/xlink" x="0px" y="0px"
	 viewBox="0 0 652 652" style="enable-background:new 0 0 652 652;" xml:space="preserve">
<style type="text/css">
	.st0{display:none;}
	.st1{display:inline;}
	.st2{fill:#0C0407;}
	.st3{fill:#FFFFFF;}
	.st4{fill:#3A3A3A;}
	.st5{clip-path:url(#SVGID_2_);}
	.st6{clip-path:url(#SVGID_4_);fill-rule:evenodd;clip-rule:evenodd;fill:#3A3A3A;}
	.st7{clip-path:url(#SVGID_6_);}
	.st8{clip-path:url(#SVGID_8_);fill-rule:evenodd;clip-rule:evenodd;fill:#FF5704;}
</style>
<g class="st0">
	<g class="st1">
		<path class="st2" d="M240,670.9l1.6-0.1c0.1,0.6,0.3,1.2,0.5,1.6c0.3,0.4,0.7,0.7,1.3,1c0.6,0.3,1.2,0.4,2,0.4
			c0.7,0,1.2-0.1,1.7-0.3s0.9-0.5,1.1-0.8s0.4-0.7,0.4-1.1c0-0.4-0.1-0.8-0.4-1.1s-0.6-0.6-1.2-0.8c-0.3-0.1-1.1-0.3-2.3-0.6
			s-2-0.6-2.5-0.8c-0.6-0.3-1.1-0.7-1.4-1.2c-0.3-0.5-0.5-1-0.5-1.6c0-0.7,0.2-1.3,0.6-1.8s0.9-1,1.6-1.3s1.5-0.4,2.4-0.4
			c1,0,1.8,0.2,2.5,0.5c0.7,0.3,1.3,0.8,1.7,1.4s0.6,1.3,0.6,2l-1.6,0.1c-0.1-0.8-0.4-1.4-0.9-1.8c-0.5-0.4-1.3-0.6-2.2-0.6
			c-1,0-1.8,0.2-2.3,0.6c-0.5,0.4-0.7,0.8-0.7,1.4c0,0.5,0.2,0.8,0.5,1.1c0.3,0.3,1.2,0.6,2.6,0.9c1.4,0.3,2.3,0.6,2.9,0.8
			c0.8,0.3,1.3,0.8,1.7,1.3s0.5,1.1,0.5,1.8c0,0.7-0.2,1.3-0.6,1.9c-0.4,0.6-1,1.1-1.7,1.4c-0.7,0.3-1.6,0.5-2.5,0.5
			c-1.2,0-2.1-0.2-2.9-0.5c-0.8-0.3-1.4-0.9-1.9-1.5C240.3,672.6,240,671.8,240,670.9z"/>
		<path class="st2" d="M258.8,672.1l1.6,0.2c-0.3,1-0.7,1.7-1.4,2.2s-1.6,0.8-2.7,0.8c-1.4,0-2.4-0.4-3.2-1.3
			c-0.8-0.8-1.2-2-1.2-3.5c0-1.6,0.4-2.8,1.2-3.7s1.9-1.3,3.1-1.3c1.2,0,2.3,0.4,3.1,1.3s1.2,2,1.2,3.6c0,0.1,0,0.2,0,0.4h-7
			c0.1,1,0.3,1.8,0.9,2.4s1.2,0.8,2,0.8c0.6,0,1.1-0.2,1.5-0.5S258.6,672.7,258.8,672.1z M253.6,669.5h5.2c-0.1-0.8-0.3-1.4-0.6-1.8
			c-0.5-0.6-1.2-0.9-2-0.9c-0.7,0-1.3,0.2-1.8,0.7S253.6,668.7,253.6,669.5z"/>
		<path class="st2" d="M268.8,672.1l1.6,0.2c-0.3,1-0.7,1.7-1.4,2.2s-1.6,0.8-2.7,0.8c-1.4,0-2.4-0.4-3.2-1.3
			c-0.8-0.8-1.2-2-1.2-3.5c0-1.6,0.4-2.8,1.2-3.7s1.9-1.3,3.1-1.3c1.2,0,2.3,0.4,3.1,1.3s1.2,2,1.2,3.6c0,0.1,0,0.2,0,0.4h-7
			c0.1,1,0.3,1.8,0.9,2.4s1.2,0.8,2,0.8c0.6,0,1.1-0.2,1.5-0.5S268.6,672.7,268.8,672.1z M263.6,669.5h5.2c-0.1-0.8-0.3-1.4-0.6-1.8
			c-0.5-0.6-1.2-0.9-2-0.9c-0.7,0-1.3,0.2-1.8,0.7S263.7,668.7,263.6,669.5z"/>
		<path class="st2" d="M272.4,675.1v-12.9h1.6v7.3l3.7-3.8h2l-3.6,3.5l3.9,5.9h-2l-3.1-4.8l-1.1,1.1v3.7H272.4z"/>
		<path class="st2" d="M285.3,675.1l-5-12.9h1.8l3.3,9.4c0.3,0.8,0.5,1.5,0.7,2.1c0.2-0.7,0.4-1.4,0.7-2.1l3.5-9.4h1.7l-5,12.9
			H285.3z"/>
		<path class="st2" d="M298.8,672.1l1.6,0.2c-0.3,1-0.7,1.7-1.4,2.2s-1.6,0.8-2.7,0.8c-1.4,0-2.4-0.4-3.2-1.3
			c-0.8-0.8-1.2-2-1.2-3.5c0-1.6,0.4-2.8,1.2-3.7s1.9-1.3,3.1-1.3c1.2,0,2.3,0.4,3.1,1.3s1.2,2,1.2,3.6c0,0.1,0,0.2,0,0.4h-7
			c0.1,1,0.3,1.8,0.9,2.4s1.2,0.8,2,0.8c0.6,0,1.1-0.2,1.5-0.5S298.6,672.7,298.8,672.1z M293.6,669.5h5.2c-0.1-0.8-0.3-1.4-0.6-1.8
			c-0.5-0.6-1.2-0.9-2-0.9c-0.7,0-1.3,0.2-1.8,0.7S293.7,668.7,293.6,669.5z"/>
		<path class="st2" d="M308.5,671.7l1.6,0.2c-0.2,1.1-0.6,1.9-1.3,2.5c-0.7,0.6-1.6,0.9-2.6,0.9c-1.3,0-2.3-0.4-3.1-1.3
			c-0.8-0.8-1.2-2-1.2-3.6c0-1,0.2-1.9,0.5-2.6s0.8-1.3,1.5-1.7c0.7-0.4,1.4-0.6,2.2-0.6c1,0,1.8,0.3,2.5,0.8s1.1,1.2,1.2,2.2
			l-1.5,0.2c-0.1-0.6-0.4-1.1-0.8-1.4s-0.8-0.5-1.3-0.5c-0.8,0-1.4,0.3-1.9,0.9c-0.5,0.6-0.7,1.5-0.7,2.7c0,1.3,0.2,2.2,0.7,2.7
			s1.1,0.9,1.9,0.9c0.6,0,1.1-0.2,1.6-0.6S308.4,672.4,308.5,671.7z"/>
		<path class="st2" d="M314.9,673.7l0.2,1.4c-0.4,0.1-0.8,0.1-1.2,0.1c-0.6,0-1-0.1-1.3-0.3s-0.5-0.4-0.7-0.7s-0.2-0.9-0.2-1.9V667
			h-1.2v-1.2h1.2v-2.3l1.6-0.9v3.3h1.6v1.2h-1.6v5.5c0,0.5,0,0.7,0.1,0.9s0.1,0.2,0.3,0.3c0.1,0.1,0.3,0.1,0.5,0.1
			C314.4,673.7,314.6,673.7,314.9,673.7z"/>
		<path class="st2" d="M315.9,670.4c0-1.7,0.5-3,1.4-3.8c0.8-0.7,1.8-1,2.9-1c1.3,0,2.3,0.4,3.1,1.3s1.2,2,1.2,3.5
			c0,1.2-0.2,2.1-0.5,2.8c-0.4,0.7-0.9,1.2-1.6,1.6s-1.4,0.6-2.3,0.6c-1.3,0-2.4-0.4-3.2-1.3C316.3,673.2,315.9,672,315.9,670.4z
			 M317.5,670.4c0,1.2,0.3,2.1,0.8,2.7c0.5,0.6,1.2,0.9,2,0.9c0.8,0,1.4-0.3,2-0.9s0.8-1.5,0.8-2.7c0-1.2-0.3-2-0.8-2.6
			c-0.5-0.6-1.2-0.9-2-0.9c-0.8,0-1.4,0.3-2,0.9S317.5,669.2,317.5,670.4z"/>
		<path class="st2" d="M326.4,675.1v-9.3h1.4v1.4c0.4-0.7,0.7-1.1,1-1.3c0.3-0.2,0.6-0.3,1-0.3c0.5,0,1.1,0.2,1.6,0.5l-0.5,1.5
			c-0.4-0.2-0.8-0.3-1.2-0.3c-0.3,0-0.7,0.1-0.9,0.3s-0.5,0.5-0.6,0.9c-0.2,0.6-0.3,1.2-0.3,1.8v4.9H326.4z"/>
		<path class="st2" d="M332.6,675.1v-12.9h1.7v11.4h6.3v1.5H332.6z"/>
		<path class="st2" d="M341.9,670.4c0-1.7,0.5-3,1.4-3.8c0.8-0.7,1.8-1,2.9-1c1.3,0,2.3,0.4,3.1,1.3s1.2,2,1.2,3.5
			c0,1.2-0.2,2.1-0.5,2.8c-0.4,0.7-0.9,1.2-1.6,1.6s-1.4,0.6-2.3,0.6c-1.3,0-2.4-0.4-3.2-1.3C342.3,673.2,341.9,672,341.9,670.4z
			 M343.5,670.4c0,1.2,0.3,2.1,0.8,2.7c0.5,0.6,1.2,0.9,2,0.9c0.8,0,1.4-0.3,2-0.9s0.8-1.5,0.8-2.7c0-1.2-0.3-2-0.8-2.6
			c-0.5-0.6-1.2-0.9-2-0.9c-0.8,0-1.4,0.3-2,0.9S343.5,669.2,343.5,670.4z"/>
		<path class="st2" d="M352.2,675.8l1.5,0.2c0.1,0.5,0.2,0.8,0.5,1c0.4,0.3,0.9,0.4,1.6,0.4c0.7,0,1.3-0.1,1.7-0.4s0.7-0.7,0.8-1.2
			c0.1-0.3,0.1-1,0.1-2c-0.7,0.8-1.6,1.2-2.6,1.2c-1.3,0-2.3-0.5-3-1.4s-1.1-2-1.1-3.3c0-0.9,0.2-1.7,0.5-2.5
			c0.3-0.8,0.8-1.3,1.4-1.7s1.3-0.6,2.2-0.6c1.1,0,2,0.4,2.7,1.3v-1.1h1.5v8.1c0,1.5-0.1,2.5-0.4,3.1c-0.3,0.6-0.8,1.1-1.4,1.4
			c-0.6,0.4-1.4,0.5-2.4,0.5c-1.1,0-2-0.3-2.7-0.8C352.5,677.6,352.2,676.9,352.2,675.8z M353.5,670.2c0,1.2,0.2,2.1,0.7,2.7
			s1.1,0.8,1.8,0.8c0.7,0,1.3-0.3,1.8-0.8s0.7-1.4,0.7-2.6c0-1.1-0.3-2-0.8-2.6c-0.5-0.6-1.1-0.9-1.8-0.9c-0.7,0-1.3,0.3-1.8,0.9
			C353.7,668.3,353.5,669.1,353.5,670.2z"/>
		<path class="st2" d="M361.9,670.4c0-1.7,0.5-3,1.4-3.8c0.8-0.7,1.8-1,2.9-1c1.3,0,2.3,0.4,3.1,1.3s1.2,2,1.2,3.5
			c0,1.2-0.2,2.1-0.5,2.8c-0.4,0.7-0.9,1.2-1.6,1.6s-1.4,0.6-2.3,0.6c-1.3,0-2.4-0.4-3.2-1.3C362.3,673.2,361.9,672,361.9,670.4z
			 M363.5,670.4c0,1.2,0.3,2.1,0.8,2.7c0.5,0.6,1.2,0.9,2,0.9c0.8,0,1.4-0.3,2-0.9s0.8-1.5,0.8-2.7c0-1.2-0.3-2-0.8-2.6
			c-0.5-0.6-1.2-0.9-2-0.9c-0.8,0-1.4,0.3-2,0.9S363.5,669.2,363.5,670.4z"/>
		<path class="st2" d="M372.9,675.1v-1.8h1.8v1.8H372.9z"/>
		<path class="st2" d="M386.9,670.6l1.7,0.4c-0.4,1.4-1,2.5-1.9,3.2s-2.1,1.1-3.4,1.1c-1.4,0-2.5-0.3-3.4-0.8
			c-0.9-0.6-1.5-1.4-2-2.5c-0.5-1.1-0.7-2.2-0.7-3.5c0-1.3,0.3-2.5,0.8-3.5c0.5-1,1.2-1.8,2.2-2.3c0.9-0.5,2-0.8,3.1-0.8
			c1.3,0,2.4,0.3,3.3,1s1.5,1.6,1.8,2.8l-1.7,0.4c-0.3-0.9-0.7-1.6-1.3-2s-1.3-0.6-2.1-0.6c-1,0-1.8,0.2-2.5,0.7
			c-0.7,0.5-1.1,1.1-1.4,1.9c-0.3,0.8-0.4,1.6-0.4,2.5c0,1.1,0.2,2.1,0.5,2.9c0.3,0.8,0.8,1.4,1.5,1.8s1.4,0.6,2.2,0.6
			c1,0,1.8-0.3,2.4-0.8S386.7,671.6,386.9,670.6z"/>
		<path class="st2" d="M389.9,670.4c0-1.7,0.5-3,1.4-3.8c0.8-0.7,1.8-1,2.9-1c1.3,0,2.3,0.4,3.1,1.3s1.2,2,1.2,3.5
			c0,1.2-0.2,2.1-0.5,2.8c-0.4,0.7-0.9,1.2-1.6,1.6s-1.4,0.6-2.3,0.6c-1.3,0-2.4-0.4-3.2-1.3C390.3,673.2,389.9,672,389.9,670.4z
			 M391.5,670.4c0,1.2,0.3,2.1,0.8,2.7c0.5,0.6,1.2,0.9,2,0.9c0.8,0,1.4-0.3,2-0.9s0.8-1.5,0.8-2.7c0-1.2-0.3-2-0.8-2.6
			c-0.5-0.6-1.2-0.9-2-0.9c-0.8,0-1.4,0.3-2,0.9S391.5,669.2,391.5,670.4z"/>
		<path class="st2" d="M400.5,675.1v-9.3h1.4v1.3c0.3-0.5,0.7-0.8,1.2-1.1s1-0.4,1.7-0.4c0.7,0,1.3,0.1,1.7,0.4
			c0.4,0.3,0.8,0.7,0.9,1.2c0.7-1.1,1.7-1.6,2.9-1.6c0.9,0,1.6,0.3,2.1,0.8s0.7,1.3,0.7,2.4v6.4h-1.6v-5.9c0-0.6-0.1-1.1-0.2-1.4
			c-0.1-0.3-0.3-0.5-0.6-0.7s-0.6-0.3-0.9-0.3c-0.7,0-1.2,0.2-1.6,0.7c-0.4,0.4-0.7,1.1-0.7,2.1v5.4h-1.6V669c0-0.7-0.1-1.2-0.4-1.6
			s-0.7-0.5-1.3-0.5c-0.4,0-0.9,0.1-1.2,0.4c-0.4,0.2-0.7,0.6-0.8,1s-0.3,1.1-0.3,2v4.8H400.5z"/>
	</g>
</g>
<g>
	<g>
		<path class="st3" d="M150,496.8c-1.9,0-3.7-0.5-5.3-1.5c-3-1.8-4.8-5.1-4.8-8.6l0.2-61.2H73.2c-41.2,0-58-16.7-58-57.6V214.8
			c0-40.9,16.8-57.6,58-57.6h511c45.7,0,54.6,21.1,54.6,57.6V368c0,40.9-16.8,57.6-58,57.6H296l-141.5,70.2
			C153.1,496.5,151.5,496.8,150,496.8"/>
		<path class="st4" d="M150,496.8c-1.9,0-3.7-0.5-5.3-1.5c-3-1.8-4.8-5.1-4.8-8.6l0.2-61.2H73.2c-41.2,0-58-16.7-58-57.6V214.8
			c0-40.9,16.8-57.6,58-57.6h511c45.7,0,54.6,21.1,54.6,57.6V368c0,40.9-16.8,57.6-58,57.6H296l-141.5,70.2
			C153.1,496.5,151.5,496.8,150,496.8 M73.2,177.3c-30,0-37.8,7.7-37.8,37.5V368c0,29.8,7.8,37.5,37.8,37.5h77c2.7,0,5.3,1.1,7.2,3
			c1.9,1.9,3,4.5,3,7.1l-0.1,54.9l128.9-64c1.4-0.7,3-1.1,4.5-1.1h287.2c30,0,37.8-7.7,37.8-37.5V214.8c0-16.2-1.9-25.6-6.3-30.4
			c-2.7-3-8.6-7.1-28.1-7.1H73.2z"/>
	</g>
	<g>
		<g>
			<defs>
				<rect id="SVGID_1_" x="58.2" y="231.9" width="244.8" height="118.5"/>
			</defs>
			<clipPath id="SVGID_2_">
				<use xlink:href="#SVGID_1_"  style="overflow:visible;"/>
			</clipPath>
			<g class="st5">
				<defs>
					<rect id="SVGID_3_" x="15.8" y="157.2" width="622.4" height="339.5"/>
				</defs>
				<clipPath id="SVGID_4_">
					<use xlink:href="#SVGID_3_"  style="overflow:visible;"/>
				</clipPath>
				<path class="st6" d="M117.8,328.8H80v-93c-3.8-0.6-7.5-0.9-11.1-0.9c-3.4,0-7,0.3-10.8,0.9v112.7h59.6c0.3-1.8,0.5-3.5,0.6-5.1
					c0.1-1.6,0.2-3.3,0.2-4.9c0-1.5-0.1-3-0.2-4.6C118.3,332.3,118.1,330.6,117.8,328.8 M130.5,254.5c2,0.1,3.8,0.2,5.5,0.2
					c1.7,0,3.6-0.1,5.5-0.2c2-0.1,3.8-0.3,5.5-0.6c0.3-1.8,0.5-3.6,0.6-5.3c0.1-1.8,0.2-3.5,0.2-5.2c0-1.8-0.1-3.5-0.2-5.3
					c-0.1-1.7-0.3-3.5-0.6-5.3c-1.7-0.3-3.6-0.5-5.6-0.7c-2-0.2-3.9-0.2-5.6-0.2c-1.6,0-3.4,0.1-5.4,0.2c-2,0.2-3.8,0.4-5.5,0.7
					c-0.6,3.7-0.9,7.2-0.9,10.5c0,3.4,0.3,7,0.9,10.5C126.6,254.2,128.5,254.4,130.5,254.5 M117,275.8c0,1.4,0.1,2.8,0.2,4.3
					c0.1,1.5,0.4,3,0.7,4.3h10.2v64.1c3.6,0.6,7.1,0.9,10.5,0.9c3.4,0,7-0.3,10.6-0.9v-81h-31.2C117.3,270.2,117,273,117,275.8
					 M225.7,266.7c-2-0.1-3.7-0.2-5.2-0.2c-1.9,0-3.8,0.1-5.8,0.2c-1.9,0.2-3.7,0.4-5.5,0.7l-16.8,60.4l-17.1-60.4
					c-1.7-0.4-3.6-0.7-5.6-0.8c-2-0.1-4-0.2-6.1-0.2c-1.5,0-3.3,0.1-5.4,0.2c-2.1,0.1-4.3,0.4-6.7,0.9l29.3,80.7
					c1.7,0.4,3.5,0.7,5.5,0.8c1.9,0.1,3.6,0.2,5.2,0.2c1.4,0,3.2-0.1,5.3-0.2c2.1-0.1,4.1-0.3,6.1-0.6l29.7-80.9
					C229.9,267.1,227.7,266.8,225.7,266.7 M300.7,289.1c-1.5-4.8-3.8-8.9-6.8-12.3c-3-3.4-6.6-6.2-10.8-8.2c-4.2-2-9.1-3-14.6-3
					c-6.3,0-11.8,1.1-16.5,3.4c-4.7,2.2-8.6,5.3-11.8,9.2c-3.2,3.9-5.6,8.4-7.2,13.6c-1.6,5.2-2.4,10.8-2.4,16.8
					c0,6.1,0.8,11.7,2.4,16.8c1.6,5.1,4,9.5,7.3,13.2c3.3,3.7,7.5,6.6,12.7,8.7c5.2,2.1,11.5,3.1,18.7,3.1c9.9,0,18.8-1.6,26.7-4.7
					c-0.1-3.3-0.6-6.5-1.4-9.4c-0.8-2.9-1.8-5.4-2.9-7.5c-3.2,1.3-6.7,2.2-10.2,2.9c-3.6,0.7-7.1,1-10.5,1c-6.3,0-11.3-1.4-15.2-4.2
					c-3.8-2.8-6-7.4-6.4-13.6h50.4c0.2-1.1,0.4-2.7,0.5-4.6c0.2-1.9,0.2-3.9,0.2-5.9C303,298.9,302.2,293.8,300.7,289.1 M252,299.3
					c0.5-5.3,2.1-9.5,4.7-12.4c2.6-2.9,6.5-4.4,11.5-4.4c4.4,0,7.9,1.5,10.4,4.6c2.5,3.1,3.8,7.1,4,12.2H252z"/>
			</g>
		</g>
	</g>
	<g>
		<g>
			<defs>
				<rect id="SVGID_5_" x="308.1" y="233.2" width="282.4" height="117.3"/>
			</defs>
			<clipPath id="SVGID_6_">
				<use xlink:href="#SVGID_5_"  style="overflow:visible;"/>
			</clipPath>
			<g class="st7">
				<defs>
					<rect id="SVGID_7_" x="15.8" y="157.2" width="622.4" height="339.5"/>
				</defs>
				<clipPath id="SVGID_8_">
					<use xlink:href="#SVGID_7_"  style="overflow:visible;"/>
				</clipPath>
				<path class="st8" d="M382.9,327.2c-3.5,1.3-6.7,2.1-9.6,2.7c-2.8,0.5-6.1,0.8-9.9,0.8c-20.9,0-31.4-12.8-31.4-38.3
					c0-12.9,2.6-22.5,7.8-29.1c5.2-6.5,12.7-9.8,22.4-9.8c3.7,0,7,0.3,9.7,0.8c2.7,0.5,5.9,1.4,9.4,2.7c1.2-3,2.3-6,3.3-9
					c1-3,1.6-6,1.8-9.2c-4.8-2-9.2-3.3-13.3-3.9c-4.1-0.6-8.6-0.9-13.4-0.9c-8.2,0-15.5,1.5-21.9,4.4c-6.4,2.9-11.8,7-16.2,12.2
					c-4.4,5.2-7.8,11.4-10.1,18.6c-2.3,7.2-3.5,14.9-3.5,23.3c0,8.4,1.1,16.1,3.3,23.2c2.2,7.1,5.5,13.2,9.9,18.4
					c4.4,5.2,9.8,9.2,16.3,12.1c6.5,2.9,14,4.3,22.6,4.3c4.9,0,9.4-0.3,13.6-0.9c4.2-0.6,8.9-1.9,14.2-3.9c-0.4-3.1-1-6.2-1.9-9.3
					C385.3,333.2,384.2,330.2,382.9,327.2 M438.3,265.6c-3.1,0-5.9,0.4-8.3,1.3c-2.4,0.8-4.5,1.9-6.2,3.1c-1.7,1.2-3.2,2.5-4.3,3.8
					c-1.2,1.3-2.1,2.4-2.8,3.4V234c-1.8-0.3-3.6-0.5-5.5-0.6c-1.8-0.1-3.6-0.2-5.3-0.2c-1.7,0-3.5,0.1-5.3,0.2
					c-1.8,0.1-3.6,0.3-5.3,0.6v114.8c1.8,0.3,3.6,0.5,5.4,0.6c1.8,0.1,3.5,0.2,5.2,0.2c1.7,0,3.5-0.1,5.3-0.2
					c1.8-0.1,3.6-0.3,5.5-0.6v-42.6c0-4.4,0.5-7.9,1.4-10.7c1-2.7,2.2-4.8,3.6-6.3c1.5-1.5,3.1-2.5,4.9-3.1c1.8-0.5,3.6-0.8,5.3-0.8
					c4.1,0,7.1,1.5,8.8,4.5c1.7,3,2.6,7.4,2.6,13v45.9c1.8,0.3,3.6,0.5,5.5,0.6c1.8,0.1,3.6,0.2,5.3,0.2c1.7,0,3.5-0.1,5.3-0.2
					c1.8-0.1,3.6-0.3,5.5-0.6v-51.9c0-10.8-2.3-18.7-6.8-23.7C453.6,268.1,447,265.6,438.3,265.6 M501.8,265.6
					c-3.8,0-8,0.4-12.4,1.1c-4.4,0.7-8.9,1.9-13.3,3.4c0,3.3,0.4,6.2,1.1,8.6c0.7,2.4,1.8,5,3.2,7.7c6.2-2.2,12-3.3,17.4-3.3
					c2.5,0,4.8,0.2,6.9,0.5c2.1,0.3,3.8,0.9,5.2,1.8c1.4,0.9,2.5,2.1,3.3,3.7c0.8,1.6,1.2,3.6,1.2,6.1v1.9c-3.5-0.3-6.8-0.5-9.7-0.5
					c-4,0-8.1,0.4-12.1,1.3c-4,0.9-7.7,2.3-11,4.4c-3.3,2-6,4.8-8,8.2c-2.1,3.4-3.1,7.6-3.1,12.6c0,5,0.8,9.2,2.5,12.7
					c1.7,3.4,4,6.3,7.1,8.5c3.1,2.2,6.8,3.8,11.1,4.7c4.3,0.9,9,1.4,14.2,1.4c6.4,0,12.1-0.5,17.1-1.6c5.1-1,9.4-2.1,12.9-3.3v-47
					c0-11.5-3-19.9-8.9-25.1C520.6,268.2,512.4,265.6,501.8,265.6 M514.4,332.1c-1.1,0.2-2.4,0.4-3.9,0.7c-1.5,0.3-3,0.4-4.6,0.4
					c-1.3,0-2.9-0.1-4.6-0.2c-1.8-0.2-3.4-0.6-5-1.3c-1.6-0.7-2.9-1.7-4-3.2c-1.1-1.5-1.7-3.5-1.7-6.3c0-4.1,1.4-7,4.3-8.9
					c2.9-1.8,6.8-2.7,11.8-2.7c1.1,0,2.4,0.1,3.8,0.2c1.4,0.2,2.7,0.3,3.9,0.5V332.1z M590.1,336.9c-0.3-2.1-0.8-4.2-1.5-6.2
					c-1.1,0.2-2.4,0.4-3.9,0.7c-1.5,0.3-3,0.4-4.5,0.4c-1.9,0-3.6-0.2-5-0.6c-1.4-0.4-2.6-1.2-3.6-2.4c-1-1.2-1.7-2.7-2.2-4.7
					c-0.5-2-0.8-4.6-0.8-7.8v-31.8h18.4c0.3-1.7,0.5-3.2,0.6-4.5c0.1-1.4,0.2-2.8,0.2-4.2c0-1.4-0.1-2.7-0.2-3.9
					c-0.1-1.3-0.3-2.7-0.6-4.2h-18.4v-23.7h-3.5l-28.4,37.5l0.8,3.1h9.9v36.7c0,10,2.4,17.3,7.3,21.7c4.9,4.4,11.9,6.7,21.1,6.7
					c5,0,9.8-0.6,14.4-1.7c0.1-0.7,0.2-1.5,0.2-2.3c0-0.8,0.1-1.7,0.1-2.9C590.6,340.9,590.4,339,590.1,336.9"/>
			</g>
		</g>
	</g>
</g>
</svg>
